<svg xmlns="http://www.w3.org/2000/svg" viewBox="0 0 192 192" width="192" height="192" role="img" aria-label="Mundial 26">
  <rect width="192" height="192" rx="42" fill="#F0ECE1"/>
  <defs>
    <clipPath id="shield-clip">
      <path d="M52 24H140L156 40V112L142 140L96 174L50 140L36 112V40L52 24Z"/>
    </clipPath>
    <linearGradient id="tri" x1="36" y1="0" x2="156" y2="0" gradientUnits="userSpaceOnUse">
      <stop offset="0%" stop-color="#DD352B"/>
      <stop offset="33.3%" stop-color="#DD352B"/>
      <stop offset="33.3%" stop-color="#0E8A4A"/>
      <stop offset="66.6%" stop-color="#0E8A4A"/>
      <stop offset="66.6%" stop-color="#2C5BD6"/>
      <stop offset="100%" stop-color="#2C5BD6"/>
    </linearGradient>
  </defs>
  <path d="M52 24H140L156 40V112L142 140L96 174L50 140L36 112V40L52 24Z" fill="#C6932F"/>
  <path d="M58 32H134L148 46V108L136 133L96 162L56 133L44 108V46L58 32Z" fill="url(#tri)" clip-path="url(#shield-clip)"/>
  <g clip-path="url(#shield-clip)" opacity="0.55">
    <line x1="74" y1="32" x2="54" y2="154" stroke="#C6932F" stroke-width="4"/>
    <line x1="120" y1="32" x2="100" y2="154" stroke="#C6932F" stroke-width="4"/>
  </g>
  <g transform="translate(96 59)">
    <circle r="16" fill="none" stroke="#F0ECE1" stroke-width="4" opacity="0.9"/>
    <polygon points="0,-8 8,-2 5,8 -5,8 -8,-2" fill="#F0ECE1" opacity="0.9"/>
  </g>
  <text x="96" y="126" text-anchor="middle" font-size="48" font-family="Arial, sans-serif" font-weight="700" fill="#F0ECE1">26</text>
  <g fill="#C6932F" opacity="0.95">
    <path d="M84 136H108L104 154L99 160H93L88 154Z"/>
    <rect x="92" y="160" width="8" height="8" rx="1"/>
    <rect x="86" y="168" width="20" height="5" rx="2"/>
  </g>
</svg>
